<?xml version="1.0" encoding="UTF-8" standalone="no"?><!-- Generator: Gravit.io --><svg xmlns="http://www.w3.org/2000/svg" xmlns:xlink="http://www.w3.org/1999/xlink" style="isolation:isolate" viewBox="0 0 280 100" width="280pt" height="100pt"><defs><clipPath id="_clipPath_PCVCI3CtDfKZmYiO8M8eaX9FA5fYJUEU"><rect width="280" height="100"/></clipPath></defs><g clip-path="url(#_clipPath_PCVCI3CtDfKZmYiO8M8eaX9FA5fYJUEU)"><g style="isolation:isolate"><path d=" M 35 5 L 35 77.414 C 35 87.12 27.12 95 17.414 95 L 5 95" fill="none" vector-effect="non-scaling-stroke" stroke-width="5" stroke="rgb(0,0,0)" stroke-linejoin="miter" stroke-linecap="square" stroke-miterlimit="3"/><path d=" M 45 5 L 45 24.614 C 45 35.865 51.721 45 60 45 L 60 45 C 68.279 45 75 35.865 75 24.614 L 75 5" fill="none" vector-effect="non-scaling-stroke" stroke-width="5" stroke="rgb(0,0,0)" stroke-linejoin="miter" stroke-linecap="square" stroke-miterlimit="3"/><path d=" M 85 5 L 100 45 L 115 5" fill="none" vector-effect="non-scaling-stroke" stroke-width="5" stroke="rgb(0,0,0)" stroke-linejoin="miter" stroke-linecap="square" stroke-miterlimit="3"/><path d=" M 125 19.087 L 139.951 19.087 C 148.203 19.087 154.902 15.931 154.902 12.043 L 154.902 12.043 C 154.902 8.156 148.308 5 140.185 5 L 140.185 5 C 132.062 5 125.363 12.912 125.234 22.656 L 125.234 22.656 C 125.105 32.401 131.699 40.313 139.951 40.313 L 139.951 40.313 C 148.203 40.313 154.798 38.596 154.669 36.482 L 154.669 36.482 C 154.54 34.368 147.84 32.652 139.718 32.652 L 139.718 32.652 C 131.595 32.652 125 39.899 125 48.826 L 125 48.826 C 125 57.753 131.804 65 140.185 65 L 140.185 65 C 148.566 65 155.202 56.152 154.996 45.254 L 154.902 40.313 L 154.902 65" fill="none" vector-effect="non-scaling-stroke" stroke-width="5" stroke="rgb(0,0,0)" stroke-linejoin="miter" stroke-linecap="square" stroke-miterlimit="3"/><g><path d=" M 195 43.563 L 195 43.563 C 195 35.874 187.344 33.178 177.914 37.545 L 165 43.526 L 165 29.632 L 165 65" fill="none" vector-effect="non-scaling-stroke" stroke-width="5" stroke="rgb(0,0,0)" stroke-linejoin="miter" stroke-linecap="square" stroke-miterlimit="3"/><path d=" M 165 5 L 165 40.368 L 165 14.672 L 178.102 8.23 C 187.428 3.645 194.888 6.531 194.75 14.672 L 194.75 14.672 L 195 43.526" fill="none" vector-effect="non-scaling-stroke" stroke-width="5" stroke="rgb(0,0,0)" stroke-linejoin="miter" stroke-linecap="square" stroke-miterlimit="3"/></g><g><path d=" M 212.143 23.212 L 212.143 79.681 C 212.143 88.136 219.021 95 227.493 95 L 235 95" fill="none" vector-effect="non-scaling-stroke" stroke-width="5" stroke="rgb(0,0,0)" stroke-linejoin="miter" stroke-linecap="square" stroke-miterlimit="3"/><line x1="205" y1="44.449" x2="234.969" y2="44.449" vector-effect="non-scaling-stroke" stroke-width="5" stroke="rgb(0,0,0)" stroke-linejoin="miter" stroke-linecap="square" stroke-miterlimit="3"/><line x1="212.125" y1="5" x2="212.143" y2="17.162" vector-effect="non-scaling-stroke" stroke-width="5" stroke="rgb(0,0,0)" stroke-linejoin="miter" stroke-linecap="square" stroke-miterlimit="3"/></g><g><path d=" M 274.63 5 L 274.63 5 Q 275 5 260.185 5 L 260.185 5 C 252.009 5 245.37 9.372 245.37 14.757 L 245.37 14.757 C 245.37 20.142 251.656 24.623 259.398 24.757 L 259.398 24.757 C 267.14 24.891 273.696 29.369 274.028 34.75 L 274.028 34.75 C 274.36 40.131 264.147 44.5 251.236 44.5 L 245.37 44.5" fill="none" vector-effect="non-scaling-stroke" stroke-width="5" stroke="rgb(0,0,0)" stroke-linejoin="miter" stroke-linecap="square" stroke-miterlimit="3"/><path d=" M 275 25 L 275 25 C 273.688 24.958 266.435 24.844 258.812 24.746 L 258.812 24.746 C 251.189 24.647 245 28.939 245 34.324 L 245 34.324 C 245 39.709 251.341 44.387 259.151 44.763 L 259.151 44.763 C 266.962 45.139 273.6 49.825 273.966 55.222 L 273.966 55.222 C 274.332 60.619 264.147 65 251.236 65 L 245 65" fill="none" vector-effect="non-scaling-stroke" stroke-width="5" stroke="rgb(0,0,0)" stroke-linejoin="miter" stroke-linecap="square" stroke-miterlimit="3"/></g></g></g></svg>